<svg width="128" height="128" viewBox="0 0 128 128" fill="none" xmlns="http://www.w3.org/2000/svg">
<g clip-path="url(#clip0)">
<path d="M64 0C46.5067 0 30.6527 7.0184 19.1001 18.393L64 63.2929L108.9 18.393C97.3473 7.0184 81.4933 0 64 0Z" fill="#B073E1"/>
<path d="M0 64C0 81.4933 7.0184 97.3473 18.393 108.9L64 63.2929L19.1001 18.393C7.30997 30.0015 0 46.1471 0 64Z" fill="#8E51C4"/>
<path d="M128 64C128 81.4933 120.982 97.3473 109.607 108.9L64 63.2929L108.9 18.393C120.69 30.0015 128 46.1471 128 64Z" fill="#8E51C4"/>
<path d="M109.607 108.9L64 63.2929L18.393 108.9C30.0014 120.69 46.147 128 64 128C81.8529 128 97.9985 120.69 109.607 108.9Z" fill="#6D33A5"/>
<g style="mix-blend-mode:screen">
<circle cx="64" cy="64" r="32" fill="#7552D6" fill-opacity="0.68"/>
</g>
</g>
<defs>
<clipPath id="clip0">
<rect width="128" height="128" fill="white"/>
</clipPath>
</defs>
</svg>
