<svg width="496" height="128" viewBox="0 0 496 128" fill="none" xmlns="http://www.w3.org/2000/svg">
<g clip-path="url(#clip0)">
<path d="M197.09 88L186.52 71.55L176.93 88H165.87L181.27 63.36L165.66 39.14H176.93L187.5 55.52L197.02 39.14H208.08L192.75 63.71L208.36 88H197.09ZM213.438 63.5C213.438 58.6933 214.512 54.4 216.658 50.62C218.852 46.7933 221.815 43.83 225.548 41.73C229.328 39.5833 233.552 38.51 238.218 38.51C243.678 38.51 248.462 39.91 252.568 42.71C256.675 45.51 259.545 49.3833 261.178 54.33H249.908C248.788 51.9967 247.202 50.2467 245.148 49.08C243.142 47.9133 240.808 47.33 238.148 47.33C235.302 47.33 232.758 48.0067 230.518 49.36C228.325 50.6667 226.598 52.5333 225.338 54.96C224.125 57.3867 223.518 60.2333 223.518 63.5C223.518 66.72 224.125 69.5667 225.338 72.04C226.598 74.4667 228.325 76.3567 230.518 77.71C232.758 79.0167 235.302 79.67 238.148 79.67C240.808 79.67 243.142 79.0867 245.148 77.92C247.202 76.7067 248.788 74.9333 249.908 72.6H261.178C259.545 77.5933 256.675 81.49 252.568 84.29C248.508 87.0433 243.725 88.42 238.218 88.42C233.552 88.42 229.328 87.37 225.548 85.27C221.815 83.1233 218.852 80.16 216.658 76.38C214.512 72.6 213.438 68.3067 213.438 63.5ZM291.389 48.66C294.329 48.66 296.942 49.3133 299.229 50.62C301.515 51.88 303.289 53.77 304.549 56.29C305.855 58.7633 306.509 61.75 306.509 65.25V88H296.709V66.58C296.709 63.5 295.939 61.1433 294.399 59.51C292.859 57.83 290.759 56.99 288.099 56.99C285.392 56.99 283.245 57.83 281.659 59.51C280.119 61.1433 279.349 63.5 279.349 66.58V88H269.549V36.2H279.349V54.05C280.609 52.37 282.289 51.0633 284.389 50.13C286.489 49.15 288.822 48.66 291.389 48.66ZM313.308 68.47C313.308 64.55 314.078 61.0733 315.618 58.04C317.205 55.0067 319.328 52.6733 321.988 51.04C324.695 49.4067 327.705 48.59 331.018 48.59C333.911 48.59 336.431 49.1733 338.578 50.34C340.771 51.5067 342.521 52.9767 343.828 54.75V49.22H353.698V88H343.828V82.33C342.568 84.15 340.818 85.6667 338.578 86.88C336.385 88.0467 333.841 88.63 330.948 88.63C327.681 88.63 324.695 87.79 321.988 86.11C319.328 84.43 317.205 82.0733 315.618 79.04C314.078 75.96 313.308 72.4367 313.308 68.47ZM343.828 68.61C343.828 66.23 343.361 64.2 342.428 62.52C341.495 60.7933 340.235 59.4867 338.648 58.6C337.061 57.6667 335.358 57.2 333.538 57.2C331.718 57.2 330.038 57.6433 328.498 58.53C326.958 59.4167 325.698 60.7233 324.718 62.45C323.785 64.13 323.318 66.1367 323.318 68.47C323.318 70.8033 323.785 72.8567 324.718 74.63C325.698 76.3567 326.958 77.6867 328.498 78.62C330.085 79.5533 331.765 80.02 333.538 80.02C335.358 80.02 337.061 79.5767 338.648 78.69C340.235 77.7567 341.495 76.45 342.428 74.77C343.361 73.0433 343.828 70.99 343.828 68.61ZM384.759 48.66C389.379 48.66 393.113 50.13 395.959 53.07C398.806 55.9633 400.229 60.0233 400.229 65.25V88H390.429V66.58C390.429 63.5 389.659 61.1433 388.119 59.51C386.579 57.83 384.479 56.99 381.819 56.99C379.113 56.99 376.966 57.83 375.379 59.51C373.839 61.1433 373.069 63.5 373.069 66.58V88H363.269V49.22H373.069V54.05C374.376 52.37 376.033 51.0633 378.039 50.13C380.093 49.15 382.333 48.66 384.759 48.66ZM424.739 48.59C427.632 48.59 430.175 49.1733 432.369 50.34C434.562 51.46 436.289 52.93 437.549 54.75V49.22H447.419V88.28C447.419 91.8733 446.695 95.07 445.249 97.87C443.802 100.717 441.632 102.957 438.739 104.59C435.845 106.27 432.345 107.11 428.239 107.11C422.732 107.11 418.205 105.827 414.659 103.26C411.159 100.693 409.175 97.1933 408.709 92.76H418.439C418.952 94.5333 420.049 95.9333 421.729 96.96C423.455 98.0333 425.532 98.57 427.959 98.57C430.805 98.57 433.115 97.7067 434.889 95.98C436.662 94.3 437.549 91.7333 437.549 88.28V82.26C436.289 84.08 434.539 85.5967 432.299 86.81C430.105 88.0233 427.585 88.63 424.739 88.63C421.472 88.63 418.485 87.79 415.779 86.11C413.072 84.43 410.925 82.0733 409.339 79.04C407.799 75.96 407.029 72.4367 407.029 68.47C407.029 64.55 407.799 61.0733 409.339 58.04C410.925 55.0067 413.049 52.6733 415.709 51.04C418.415 49.4067 421.425 48.59 424.739 48.59ZM437.549 68.61C437.549 66.23 437.082 64.2 436.149 62.52C435.215 60.7933 433.955 59.4867 432.369 58.6C430.782 57.6667 429.079 57.2 427.259 57.2C425.439 57.2 423.759 57.6433 422.219 58.53C420.679 59.4167 419.419 60.7233 418.439 62.45C417.505 64.13 417.039 66.1367 417.039 68.47C417.039 70.8033 417.505 72.8567 418.439 74.63C419.419 76.3567 420.679 77.6867 422.219 78.62C423.805 79.5533 425.485 80.02 427.259 80.02C429.079 80.02 430.782 79.5767 432.369 78.69C433.955 77.7567 435.215 76.45 436.149 74.77C437.082 73.0433 437.549 70.99 437.549 68.61ZM493.04 67.77C493.04 69.17 492.947 70.43 492.76 71.55H464.41C464.643 74.35 465.623 76.5433 467.35 78.13C469.077 79.7167 471.2 80.51 473.72 80.51C477.36 80.51 479.95 78.9467 481.49 75.82H492.06C490.94 79.5533 488.793 82.6333 485.62 85.06C482.447 87.44 478.55 88.63 473.93 88.63C470.197 88.63 466.837 87.8133 463.85 86.18C460.91 84.5 458.6 82.1433 456.92 79.11C455.287 76.0767 454.47 72.5767 454.47 68.61C454.47 64.5967 455.287 61.0733 456.92 58.04C458.553 55.0067 460.84 52.6733 463.78 51.04C466.72 49.4067 470.103 48.59 473.93 48.59C477.617 48.59 480.907 49.3833 483.8 50.97C486.74 52.5567 489.003 54.82 490.59 57.76C492.223 60.6533 493.04 63.99 493.04 67.77ZM482.89 64.97C482.843 62.45 481.933 60.4433 480.16 58.95C478.387 57.41 476.217 56.64 473.65 56.64C471.223 56.64 469.17 57.3867 467.49 58.88C465.857 60.3267 464.853 62.3567 464.48 64.97H482.89Z" fill="white"/>
<path d="M64 0C46.5067 0 30.6527 7.0184 19.1001 18.393L64 63.2929L108.9 18.393C97.3473 7.0184 81.4933 0 64 0Z" fill="#B073E1"/>
<path d="M0 64C0 81.4933 7.0184 97.3473 18.393 108.9L64 63.2929L19.1001 18.393C7.30997 30.0015 0 46.1471 0 64Z" fill="#8E51C4"/>
<path d="M128 64C128 81.4933 120.982 97.3473 109.607 108.9L64 63.2929L108.9 18.393C120.69 30.0015 128 46.1471 128 64Z" fill="#8E51C4"/>
<path d="M109.607 108.9L64 63.2929L18.393 108.9C30.0014 120.69 46.147 128 64 128C81.8529 128 97.9985 120.69 109.607 108.9Z" fill="#6D33A5"/>
<g style="mix-blend-mode:screen">
<circle cx="64" cy="64" r="32" fill="#7552D6" fill-opacity="0.68"/>
</g>
</g>
<defs>
<clipPath id="clip0">
<rect width="496" height="128" fill="white"/>
</clipPath>
</defs>
</svg>
